<svg xmlns="http://www.w3.org/2000/svg" xmlns:xlink="http://www.w3.org/1999/xlink" aria-hidden="true" role="img" class="iconify iconify--logos" width="31.88" height="32" preserveAspectRatio="xMidYMid meet" viewBox="0 0 256 257" style="enable-background:new 0 0 256 256" xml:space="preserve"><style>.st2{fill:none;stroke:#6b1d1d;stroke-width:.5;stroke-miterlimit:10}.st3{fill:#3a312a}.st4{fill:#87796f}.st7{fill:#fce8cb}.st8{fill:#f16c7a}.st14{fill:#d7e057}</style><g id="Layer_1"><path class="st8" d="M88.06 180.979h143.951A6.989 6.989 0 0 0 239 173.99v-7.643a6.989 6.989 0 0 0-6.989-6.989H23.989A6.989 6.989 0 0 0 17 166.347v7.643a6.989 6.989 0 0 0 6.989 6.989H88.06z"/><path class="st3" d="M232.011 182.479H88.06a1.5 1.5 0 1 1 0-3h143.951a5.495 5.495 0 0 0 5.489-5.488v-7.643a5.495 5.495 0 0 0-5.489-5.489H23.989a5.495 5.495 0 0 0-5.489 5.489v7.643a5.495 5.495 0 0 0 5.489 5.488h51.284a1.5 1.5 0 1 1 0 3H23.989c-4.681 0-8.489-3.808-8.489-8.488v-7.643c0-4.681 3.808-8.489 8.489-8.489h208.022c4.681 0 8.489 3.808 8.489 8.489v7.643c0 4.68-3.808 8.488-8.489 8.488z"/><path class="st8" d="M37 180.979h20v58.5H37z"/><path class="st3" d="M57 240.979H37a1.5 1.5 0 0 1-1.5-1.5v-58.5a1.5 1.5 0 0 1 1.5-1.5h20a1.5 1.5 0 0 1 1.5 1.5v58.5a1.5 1.5 0 0 1-1.5 1.5zm-18.5-3h17v-55.5h-17v55.5z"/><path class="st8" d="M199 180.979h20v58.5h-20z"/><path class="st3" d="M219 240.979h-20a1.5 1.5 0 0 1-1.5-1.5v-58.5a1.5 1.5 0 0 1 1.5-1.5h20a1.5 1.5 0 0 1 1.5 1.5v58.5a1.5 1.5 0 0 1-1.5 1.5zm-18.5-3h17v-55.5h-17v55.5z"/><path d="M61.332 159.359H49.989a4.286 4.286 0 0 1-4.286-4.286V67.264a4.286 4.286 0 0 1 4.286-4.286h11.343a4.286 4.286 0 0 1 4.286 4.286v87.808a4.286 4.286 0 0 1-4.286 4.287z" style="fill:#8ac6dd"/><path class="st3" d="M61.332 160.858H49.989a5.792 5.792 0 0 1-5.786-5.786V67.264a5.792 5.792 0 0 1 5.786-5.786h11.343a5.792 5.792 0 0 1 5.786 5.786v87.809a5.792 5.792 0 0 1-5.786 5.785zM49.989 64.479a2.789 2.789 0 0 0-2.786 2.786v87.809a2.79 2.79 0 0 0 2.786 2.786h11.343a2.79 2.79 0 0 0 2.786-2.786v-87.81a2.79 2.79 0 0 0-2.786-2.786H49.989z"/><path class="st8" d="M45.703 79.979h19.915v20H45.703z"/><path class="st3" d="M65.618 101.479H45.703a1.5 1.5 0 0 1-1.5-1.5v-20a1.5 1.5 0 0 1 1.5-1.5h19.915a1.5 1.5 0 0 1 1.5 1.5v20a1.5 1.5 0 0 1-1.5 1.5zm-18.415-3h16.915v-17H47.203v17z"/><path class="st7" d="M30.904 159.359h10.514a4.286 4.286 0 0 0 4.286-4.286V84.264a4.286 4.286 0 0 0-4.286-4.286H30.904a4.286 4.286 0 0 0-4.286 4.286v70.808a4.286 4.286 0 0 0 4.286 4.287z"/><path class="st3" d="M41.417 160.858H30.904a5.792 5.792 0 0 1-5.786-5.786V84.265a5.792 5.792 0 0 1 5.786-5.786h10.514a5.793 5.793 0 0 1 5.786 5.786v70.808a5.793 5.793 0 0 1-5.787 5.785zM30.904 81.479a2.79 2.79 0 0 0-2.786 2.786v70.808a2.79 2.79 0 0 0 2.786 2.786h10.514a2.79 2.79 0 0 0 2.786-2.786V84.265a2.789 2.789 0 0 0-2.786-2.786H30.904z"/><path class="st14" d="M26.618 93.98h19.085v16.472H26.618z"/><path class="st3" d="M45.703 111.953H26.618a1.5 1.5 0 0 1-1.5-1.5V93.98a1.5 1.5 0 0 1 1.5-1.5h19.085a1.5 1.5 0 0 1 1.5 1.5v16.473a1.5 1.5 0 0 1-1.5 1.5zm-17.585-3h16.085V95.48H28.118v13.473z"/><path class="st4" d="M176.926 39.979H91.012c-6.104 0-11.053 4.949-11.053 11.053v84.187c0 6.104 4.949 11.053 11.053 11.053h121.987c6.104 0 11.053-4.949 11.053-11.053V51.031c0-6.104-4.948-11.053-11.053-11.053h-36.073z"/><path class="st3" d="M212.999 147.771H91.012c-6.921 0-12.553-5.631-12.553-12.553V51.031c0-6.921 5.631-12.553 12.553-12.553h85.915a1.5 1.5 0 1 1 0 3H91.012c-5.268 0-9.553 4.285-9.553 9.553v84.187c0 5.268 4.285 9.553 9.553 9.553h121.987c5.268 0 9.553-4.286 9.553-9.553V51.031c0-5.268-4.285-9.553-9.553-9.553H189.74a1.5 1.5 0 1 1 0-3h23.258c6.921 0 12.553 5.631 12.553 12.553v84.187c0 6.922-5.631 12.553-12.552 12.553z"/><path class="st4" d="M229.382 146.268c0 7.23-5.861 13.091-13.085 13.091H87.713a13.065 13.065 0 0 1-9.253-3.832 13.068 13.068 0 0 1-3.832-9.259h154.754z"/><path class="st3" d="M216.297 160.858H87.713a14.51 14.51 0 0 1-10.312-4.27 14.522 14.522 0 0 1-4.272-10.321 1.5 1.5 0 0 1 1.5-1.5h154.753a1.5 1.5 0 0 1 1.5 1.5c0 8.046-6.543 14.591-14.585 14.591zm-140.073-13.09a11.536 11.536 0 0 0 3.298 6.7 11.53 11.53 0 0 0 8.191 3.391h128.585c5.88 0 10.751-4.406 11.488-10.091H76.224z"/><path class="st7" d="M95.81 48.056a7.702 7.702 0 0 0-7.702 7.702v74.734a7.702 7.702 0 0 0 7.702 7.702H208.2a7.702 7.702 0 0 0 7.702-7.702V55.758a7.702 7.702 0 0 0-7.702-7.702H95.81z"/><path class="st3" d="M208.2 139.694H95.81c-5.074 0-9.202-4.128-9.202-9.202V55.758c0-5.074 4.128-9.202 9.202-9.202H208.2c5.074 0 9.202 4.128 9.202 9.202v74.734c0 5.074-4.128 9.202-9.202 9.202zM95.81 49.556a6.209 6.209 0 0 0-6.202 6.202v74.734a6.209 6.209 0 0 0 6.202 6.202H208.2a6.209 6.209 0 0 0 6.202-6.202V55.758a6.209 6.209 0 0 0-6.202-6.202H95.81zM153.62 44.017a1.615 1.615 0 1 1-3.23 0 1.615 1.615 0 0 1 3.23 0z"/><path class="st4" d="M163.313 146.268v4.165a2.542 2.542 0 0 1-2.542 2.542h-16.24a2.542 2.542 0 0 1-2.542-2.542v-4.165h21.324z"/><path class="st3" d="M160.771 154.475h-16.239a4.046 4.046 0 0 1-4.042-4.042v-4.165a1.5 1.5 0 0 1 1.5-1.5h21.323a1.5 1.5 0 0 1 1.5 1.5v4.165a4.046 4.046 0 0 1-4.042 4.042zm-17.281-6.707v2.665c0 .574.467 1.042 1.042 1.042h16.239c.575 0 1.042-.467 1.042-1.042v-2.665H143.49z"/><path class="st14" d="M47.911 26.198s3.408 12.659 13.222 13.246c0 0-13.1 4.525-13.321 14.202 0 0-2.578-13.572-12.925-14.059 0 .001 12.05-1.825 13.024-13.389z"/><path class="st3" d="M47.811 55.146a1.5 1.5 0 0 1-1.472-1.217c-.024-.124-2.495-12.417-11.523-12.842a1.5 1.5 0 0 1-.155-2.982c.441-.069 10.894-1.817 11.754-12.032a1.5 1.5 0 0 1 2.942-.266c.032.116 3.259 11.626 11.863 12.14a1.5 1.5 0 0 1 .402 2.915c-.121.042-12.118 4.311-12.312 12.819a1.498 1.498 0 0 1-1.499 1.465zM40.07 39.417c3.878 1.969 6.23 5.746 7.587 8.876 2.026-4.021 5.941-6.787 8.949-8.427-4.134-1.842-6.783-5.651-8.334-8.722-1.793 4.36-5.272 6.868-8.202 8.273z"/><path class="st14" d="M26.212 43.179s2.411 8.954 9.352 9.369c0 0-9.266 3.201-9.422 10.045 0 0-1.824-9.6-9.142-9.944 0 .001 8.524-1.291 9.212-9.47z"/><path class="st3" d="M26.141 64.094a1.5 1.5 0 0 1-1.472-1.22c-.016-.082-1.704-8.441-7.739-8.726a1.5 1.5 0 0 1-.154-2.982c.296-.047 7.364-1.243 7.942-8.113a1.5 1.5 0 0 1 2.942-.267c.021.079 2.227 7.92 7.994 8.264a1.499 1.499 0 0 1 .4 2.915c-.081.028-8.282 2.953-8.413 8.662a1.501 1.501 0 0 1-1.5 1.467zm-4.519-11.528c2.107 1.333 3.523 3.395 4.447 5.28 1.376-2.232 3.515-3.872 5.365-4.973-2.287-1.269-3.884-3.35-4.941-5.224-1.174 2.288-3.015 3.876-4.871 4.917z"/><path class="st14" d="M26.212 16.521s2.411 8.954 9.352 9.37c0 0-9.266 3.201-9.422 10.045 0 0-1.824-9.6-9.142-9.944 0 0 8.524-1.291 9.212-9.471z"/><path class="st3" d="M26.141 37.437a1.5 1.5 0 0 1-1.472-1.22c-.016-.082-1.704-8.442-7.739-8.726a1.5 1.5 0 0 1-.155-2.981c.296-.047 7.364-1.243 7.942-8.114a1.5 1.5 0 0 1 2.942-.266c.021.079 2.227 7.92 7.994 8.265a1.5 1.5 0 0 1 .4 2.915c-.081.028-8.282 2.952-8.413 8.662a1.501 1.501 0 0 1-1.499 1.465zm-4.519-11.528c2.107 1.332 3.523 3.394 4.447 5.28 1.376-2.232 3.515-3.872 5.365-4.972-2.287-1.269-3.884-3.35-4.941-5.224-1.174 2.286-3.015 3.875-4.871 4.916z"/><path d="M214.4 55.759v74.73c0 3.42-2.78 6.21-6.2 6.21h-15c3.42 0 6.2-2.79 6.2-6.21v-74.73c0-3.42-2.78-6.2-6.2-6.2h15c3.42 0 6.2 2.78 6.2 6.2z" style="fill:#decaad"/></g></svg>